<svg width="16" height="13" viewBox="0 0 16 13" fill="none" xmlns="http://www.w3.org/2000/svg">
<g clip-path="url(#clip0_8_5)">
<rect width="16" height="13" fill="white"/>
<path d="M1.18668 11V0.818182H7.80884V2.36435H3.03114V5.12855H7.4658V6.67472H3.03114V9.45384H7.84862V11H1.18668ZM10.0108 6.52557V11H8.21104V3.36364H9.93121V4.66122H10.0207C10.1964 4.23366 10.4764 3.89394 10.8609 3.64205C11.2487 3.39015 11.7276 3.2642 12.2977 3.2642C12.8247 3.2642 13.2837 3.37689 13.6748 3.60227C14.0692 3.82765 14.3742 4.15412 14.5896 4.58168C14.8083 5.00923 14.9161 5.52794 14.9127 6.13778V11H13.113V6.41619C13.113 5.90578 12.9805 5.50639 12.7153 5.21804C12.4535 4.92969 12.0905 4.78551 11.6265 4.78551C11.3117 4.78551 11.0316 4.85511 10.7863 4.99432C10.5444 5.13021 10.3538 5.32741 10.2146 5.58594C10.0787 5.84446 10.0108 6.15767 10.0108 6.52557Z" fill="black"/>
</g>
<defs>
<clipPath id="clip0_8_5">
<rect width="16" height="13" fill="white"/>
</clipPath>
</defs>
</svg>
